# xmcd
#
# Track frame offsets:
#	150
#	12267
#	26531
#	41888
#	56845
#	71596
#	85834
#	95994
#	109898
#	121597
#	133855
#	148144
#	162286
#	173143
#	187811
#	202200
#	216740
#	228541
#	257302
#	272067
#
# Disc length: 3800 seconds
#
# Revision: 0
# Processed by: cddbd v1.5.2PL0 Copyright (c) Steve Scherf et al.
# Submitted via: EZCDAudioConverter 2.1.7.1
#
DISCID=300ed614
DTITLE=V/A - Soul Emissaries (BGP)
DYEAR=1900
DGENRE=
TTITLE0=Samson and Delilah - You Bring The Tears
TTITLE1=George Jackson - Love Highjacker
TTITLE2=Billy Cee - Dark Skin Woman
TTITLE3=William Bostic - Sweet Thang
TTITLE4=Two Things In One - Teardrops
TTITLE5=Mary Love - Born To Live With Heartache
TTITLE6=Viola Wills - Sweetback
TTITLE7=Huck Daniels Co. - Foolish Man (Part 2)
TTITLE8=Marcene Harris - Work It Out
TTITLE9=Earl Foster - Jodine
TTITLE10=Tribe - Funky Kingston
TTITLE11=McKinley Mitchell - Days Got Brighter
TTITLE12=Chuck Brooks - Behind Closed Doors
TTITLE13=Raymond Parker - We Can Work It Out
TTITLE14=William Bostic - What You Do To Me
TTITLE15=Chet Ivey and His Fabulous Avengers - So Fine
TTITLE16=Lee Porter and Peaceful Persuasion - Nobody's Doin' A Doggone Thing
TTITLE17=Funky Kids - Brother Jack
TTITLE18=Obrey Wilson - Daddy Please Stay Home
TTITLE19=LaMont Johnson - Forgotten
EXTD=
EXTT0=
EXTT1=
EXTT2=
EXTT3=
EXTT4=
EXTT5=
EXTT6=
EXTT7=
EXTT8=
EXTT9=
EXTT10=
EXTT11=
EXTT12=
EXTT13=
EXTT14=
EXTT15=
EXTT16=
EXTT17=
EXTT18=
EXTT19=
PLAYORDER=
